<svg width="256" height="256" viewBox="0 0 256 256" xmlns="http://www.w3.org/2000/svg">
  <defs>
    <linearGradient id="aws-gradient" x1="0%" y1="0%" x2="100%" y2="100%">
      <stop offset="0%" style="stop-color:#FF9900;stop-opacity:1" />
      <stop offset="100%" style="stop-color:#FF6600;stop-opacity:1" />
    </linearGradient>
  </defs>
  
  <!-- AWS Logo Background -->
  <rect width="256" height="256" fill="url(#aws-gradient)" rx="20"/>
  
  <!-- AWS Text -->
  <text x="128" y="100" text-anchor="middle" fill="white" font-family="Arial, sans-serif" font-weight="bold" font-size="48">AWS</text>
  
  <!-- Cloud Icon -->
  <path d="M80 140 C60 140, 50 160, 70 170 L180 170 C200 170, 210 150, 190 140 C190 130, 180 120, 170 120 C160 110, 140 110, 130 120 C120 110, 100 110, 90 120 C85 125, 80 132, 80 140 Z" fill="white" opacity="0.9"/>
  
  <!-- Certification Badge -->
  <circle cx="200" cy="60" r="25" fill="#00D4AA"/>
  <text x="200" y="67" text-anchor="middle" fill="white" font-family="Arial, sans-serif" font-weight="bold" font-size="14">✓</text>
  
  <!-- Bottom Text -->
  <text x="128" y="200" text-anchor="middle" fill="white" font-family="Arial, sans-serif" font-size="16">Certified</text>
  <text x="128" y="220" text-anchor="middle" fill="white" font-family="Arial, sans-serif" font-size="14">Cloud Practitioner</text>
</svg>
